<?xml version="1.0" encoding="utf-8"?>
<!-- Generator: Adobe Illustrator 24.0.0, SVG Export Plug-In . SVG Version: 6.00 Build 0)  -->
<svg version="1.1" id="Layer_1" xmlns="http://www.w3.org/2000/svg" xmlns:xlink="http://www.w3.org/1999/xlink" x="0px" y="0px"
	 viewBox="0 0 120 60" style="enable-background:new 0 0 120 60;" xml:space="preserve">
<style type="text/css">
	.st0{fill:#FFFFFF;}
</style>
<g>
	<path class="st0" d="M49.1,27.8c-0.2-0.3-0.4-0.4-0.9-0.4c-1.6,0.2-3.2,0.1-4.7-0.6c-3.2-1.4-4.6-4.2-3.5-7.5
		c1.2-3.9,3.9-6.2,8-6.9c1.2-0.2,1.7-0.6,2.2-1.7c1.1-3,3.2-5.2,6.5-5.9c1.9-0.4,3.9-0.3,5.7,0.6c2.7,1.3,4,4.7,2.9,7.3
		c0-0.7,0.2-1.5,0.1-2.2c-0.3-3.1-2.5-5.1-5.8-5.2c-3.4-0.2-6.1,1.2-7.7,4.2c-0.6,1.1-1,2.3-1.5,3.6c-0.6,0.1-1.3,0.1-2.1,0.3
		c-3.1,0.7-5.4,2.2-6.7,5.2c-1.8,4.1,0.8,7,4.4,7.5c2,0.3,3.9-0.2,5.6-1.2c3.9-2.2,7.9-2.3,12-0.4c3,1.4,6.1,1.9,9.4,1.3
		c4.1-0.7,6.4-3.4,6.6-7.5c0.1-2-0.3-4-1.2-5.8C77,10.2,75,8.9,72.3,8.8c-1.1-0.1-2.1,0-2.8,0c3.3-1,7.2,0,9.1,3.2
		c1.6,2.7,2.2,5.7,1.4,8.8c-0.8,3.5-3.2,5.4-6.6,6.1c-3.5,0.8-6.8,0.3-10-1.1c-3.9-1.8-7.7-1.7-11.4,0.5c-0.8,0.5-1.8,0.8-2.8,1.1
		C49.1,27.5,49.1,27.6,49.1,27.8L49.1,27.8z"/>
	<path class="st0" d="M49.2,27.7c1.1,1.5,1.7,3.3,2.1,5.1c0.1,0.4,0.1,0.7,0.2,1c1.6-0.3,3.1-0.7,4.7-1c3.5-0.5,7-0.1,10.4,0.8
		c0.1,0,0.3,0.1,0.4,0.1s0.3-0.1,0.4-0.1c-0.1-0.1-0.1-0.2-0.2-0.3c-0.2-0.1-0.5-0.3-0.8-0.4c-3.9-1.7-7.9-1.9-12-1.1
		c-0.5,0.1-0.9,0.2-1.4,0.3c3.3-2.4,12.5-1.9,16,0.9c-0.3,0.7-0.7,1.5-1.1,2.3c-5.7-1.7-11.5-2.2-17.3-0.2c-0.1-1,0-2.1-0.3-3.1
		C50.1,30.6,49.6,29.2,49.2,27.7C49.1,27.8,49.2,27.7,49.2,27.7z"/>
</g>
<g>
	<g>
		<path class="st0" d="M41,37.3h4.2v0.4h-1.9v6h-0.4v-6H41V37.3z"/>
		<path class="st0" d="M47.9,43.7c-0.3,0-0.6-0.1-0.9-0.2c-0.3-0.2-0.5-0.4-0.6-0.6c-0.2-0.3-0.2-0.6-0.2-1s0.1-0.7,0.3-1
			s0.4-0.5,0.7-0.6s0.6-0.2,1-0.2c0.3,0,0.6,0.1,0.9,0.3c0.3,0.2,0.5,0.4,0.6,0.7l-0.1,0.1l0.1-1h0.4v3.5h-0.4v-1.1l0.1,0.2
			c0,0.1-0.1,0.2-0.2,0.4c-0.1,0.1-0.2,0.2-0.4,0.3c-0.1,0.1-0.3,0.2-0.5,0.2C48.3,43.7,48.1,43.7,47.9,43.7z M48,43.4
			c0.3,0,0.5-0.1,0.7-0.2c0.2-0.1,0.4-0.3,0.5-0.5s0.2-0.4,0.2-0.7v-0.5c0-0.2-0.1-0.4-0.3-0.6s-0.3-0.3-0.5-0.4
			c-0.2-0.1-0.4-0.2-0.7-0.2s-0.5,0.1-0.7,0.2c-0.2,0.1-0.4,0.3-0.5,0.5s-0.2,0.5-0.2,0.8s0.1,0.5,0.2,0.8c0.1,0.2,0.3,0.4,0.5,0.5
			C47.5,43.3,47.8,43.4,48,43.4z"/>
		<path class="st0" d="M52.4,43.7c-0.2,0-0.4,0-0.6-0.1c-0.2-0.1-0.4-0.2-0.5-0.4l0.2-0.3c0.1,0.1,0.3,0.2,0.4,0.3
			c0.2,0.1,0.3,0.1,0.5,0.1c0.1,0,0.3,0,0.4-0.1c0.1,0,0.2-0.1,0.3-0.2c0.1-0.1,0.1-0.2,0.1-0.4s0-0.3-0.1-0.4
			C53,42.1,52.9,42,52.7,42s-0.3,0-0.5,0c-0.3-0.1-0.5-0.2-0.6-0.3c-0.2-0.1-0.2-0.3-0.2-0.6c0-0.2,0-0.4,0.1-0.5s0.2-0.3,0.4-0.3
			c0.2-0.1,0.3-0.1,0.5-0.1s0.4,0,0.6,0.1c0.2,0.1,0.3,0.2,0.5,0.3l-0.2,0.3c-0.1-0.1-0.2-0.2-0.4-0.3c-0.2,0-0.3-0.1-0.4-0.1
			c-0.1,0-0.2,0-0.3,0.1c-0.1,0-0.2,0.1-0.3,0.2s-0.1,0.2-0.1,0.3s0,0.3,0.1,0.3c0.1,0.1,0.2,0.2,0.3,0.2c0.1,0.1,0.3,0.1,0.4,0.2
			c0.2,0.1,0.3,0.1,0.5,0.2c0.2,0.1,0.3,0.2,0.4,0.3s0.1,0.3,0.1,0.5s0,0.4-0.1,0.6c-0.1,0.2-0.2,0.3-0.4,0.4
			C52.8,43.7,52.6,43.7,52.4,43.7z"/>
		<path class="st0" d="M55.2,38.6h0.4v1.6h1.1v0.3h-1.1v3.1h-0.4v-3.1h-0.7v-0.3h0.7V38.6z"/>
		<path class="st0" d="M58.9,43.7l-1.7-3.6h0.5l1.5,3.3L58.9,43.7z M58.1,45.3l2.3-5.2h0.4l-2.3,5.2H58.1z"/>
		<path class="st0" d="M64.8,37.3h3.6v0.4h-3.1v2.6H68v0.4h-2.8v2.9h-0.4C64.8,43.6,64.8,37.3,64.8,37.3z"/>
		<path class="st0" d="M69.5,41.9c0-0.3,0.1-0.7,0.2-0.9s0.4-0.5,0.7-0.7c0.3-0.2,0.6-0.2,1-0.2s0.7,0.1,1,0.2s0.5,0.4,0.7,0.7
			s0.2,0.6,0.2,0.9s-0.1,0.7-0.2,0.9s-0.4,0.5-0.7,0.7c-0.3,0.2-0.6,0.2-1,0.2s-0.7-0.1-1-0.2c-0.3-0.2-0.5-0.4-0.7-0.7
			C69.5,42.6,69.5,42.2,69.5,41.9z M69.9,41.9c0,0.3,0.1,0.5,0.2,0.8s0.3,0.4,0.5,0.5s0.5,0.2,0.7,0.2c0.3,0,0.5-0.1,0.7-0.2
			c0.2-0.1,0.4-0.3,0.5-0.5s0.2-0.5,0.2-0.8s-0.1-0.5-0.2-0.8c-0.1-0.2-0.3-0.4-0.5-0.5s-0.5-0.2-0.7-0.2c-0.3,0-0.5,0.1-0.7,0.2
			c-0.2,0.1-0.4,0.3-0.5,0.6C70,41.4,69.9,41.6,69.9,41.9z"/>
		<path class="st0" d="M74.1,41.9c0-0.3,0.1-0.7,0.2-0.9s0.4-0.5,0.7-0.7c0.3-0.2,0.6-0.2,1-0.2s0.7,0.1,1,0.2s0.5,0.4,0.7,0.7
			s0.2,0.6,0.2,0.9s-0.1,0.7-0.2,0.9s-0.4,0.5-0.7,0.7c-0.3,0.2-0.6,0.2-1,0.2s-0.7-0.1-1-0.2c-0.3-0.2-0.5-0.4-0.7-0.7
			C74.2,42.6,74.1,42.2,74.1,41.9z M74.6,41.9c0,0.3,0.1,0.5,0.2,0.8s0.3,0.4,0.5,0.5s0.5,0.2,0.7,0.2c0.3,0,0.5-0.1,0.7-0.2
			c0.2-0.1,0.4-0.3,0.5-0.5s0.2-0.5,0.2-0.8s-0.1-0.5-0.2-0.8c-0.1-0.2-0.3-0.4-0.5-0.5s-0.5-0.2-0.7-0.2c-0.3,0-0.5,0.1-0.7,0.2
			c-0.2,0.1-0.4,0.3-0.5,0.6C74.6,41.4,74.6,41.6,74.6,41.9z"/>
		<path class="st0" d="M80.6,43.7c-0.3,0-0.6-0.1-0.9-0.2c-0.3-0.2-0.5-0.4-0.6-0.7s-0.2-0.6-0.2-1s0.1-0.7,0.2-1
			c0.2-0.3,0.4-0.5,0.7-0.6c0.3-0.1,0.6-0.2,0.9-0.2s0.7,0.1,1,0.3s0.5,0.4,0.7,0.7l-0.1,0.2v-4.4h0.4v6.8h-0.4v-1.1l0.1,0.2
			c-0.2,0.3-0.4,0.5-0.7,0.7C81.3,43.6,81,43.7,80.6,43.7z M80.7,43.4c0.3,0,0.5-0.1,0.7-0.2s0.4-0.3,0.5-0.5s0.2-0.4,0.2-0.7v-0.5
			c0-0.2-0.1-0.4-0.3-0.6c-0.1-0.2-0.3-0.3-0.5-0.4c-0.2-0.1-0.4-0.2-0.7-0.2c-0.3,0-0.5,0.1-0.7,0.2c-0.2,0.1-0.4,0.3-0.5,0.5
			s-0.2,0.5-0.2,0.8s0.1,0.5,0.2,0.8c0.1,0.2,0.3,0.4,0.5,0.5C80.2,43.3,80.4,43.4,80.7,43.4z"/>
	</g>
</g>
</svg>
